{
	"asset":{
		"generator":"Khronos glTF Blender I/O v4.2.60",
		"version":"2.0"
	},
	"scene":0,
	"scenes":[
		{
			"name":"Scene",
			"nodes":[
				0
			]
		}
	],
	"nodes":[
		{
			"mesh":0,
			"name":"note",
			"rotation":[
				0.70710688829422,
				0,
				0,
				0.7071066498756409
			],
			"scale":[
				0.009685877710580826,
				0.0096858786419034,
				0.0096858786419034
			]
		}
	],
	"meshes":[
		{
			"name":"note",
			"primitives":[
				{
					"attributes":{
						"POSITION":0,
						"NORMAL":1,
						"TEXCOORD_0":2
					},
					"indices":3
				}
			]
		}
	],
	"accessors":[
		{
			"bufferView":0,
			"componentType":5126,
			"count":3031,
			"max":[
				121.0504150390625,
				51.153564453125,
				193.48208618164062
			],
			"min":[
				-147.30047607421875,
				-51.15106201171875,
				-299.5287170410156
			],
			"type":"VEC3"
		},
		{
			"bufferView":1,
			"componentType":5126,
			"count":3031,
			"type":"VEC3"
		},
		{
			"bufferView":2,
			"componentType":5126,
			"count":3031,
			"type":"VEC2"
		},
		{
			"bufferView":3,
			"componentType":5123,
			"count":17280,
			"type":"SCALAR"
		}
	],
	"bufferViews":[
		{
			"buffer":0,
			"byteLength":36372,
			"byteOffset":0,
			"target":34962
		},
		{
			"buffer":0,
			"byteLength":36372,
			"byteOffset":36372,
			"target":34962
		},
		{
			"buffer":0,
			"byteLength":24248,
			"byteOffset":72744,
			"target":34962
		},
		{
			"buffer":0,
			"byteLength":34560,
			"byteOffset":96992,
			"target":34963
		}
	],
	"buffers":[
		{
			"byteLength":131552,
			"uri":"note2.bin"
		}
	]
}
