{
	"asset":{
		"generator":"Khronos glTF Blender I/O v4.2.60",
		"version":"2.0"
	},
	"extensionsUsed":[
		"KHR_materials_specular"
	],
	"scene":0,
	"scenes":[
		{
			"name":"Scene",
			"nodes":[
				15
			]
		}
	],
	"nodes":[
		{
			"mesh":0,
			"name":"radio_01_low1",
			"translation":[
				3.662533760070801,
				-0.6809344291687012,
				-0.12944602966308594
			]
		},
		{
			"mesh":1,
			"name":"radio_02_low1",
			"translation":[
				3.6625335216522217,
				-0.6809344291687012,
				-0.1294458508491516
			]
		},
		{
			"children":[
				0,
				1
			],
			"name":"merged",
			"rotation":[
				0,
				-0.9356936812400818,
				0,
				0.3528134226799011
			],
			"scale":[
				0.7513934969902039,
				0.7513934969902039,
				0.7513934969902039
			],
			"translation":[
				2.0026607513427734,
				0.5116492509841919,
				-3.8811216354370117
			]
		},
		{
			"name":"amin_2"
		},
		{
			"children":[
				3
			],
			"name":"antena_low",
			"scale":[
				0.1848905384540558,
				0.1848905384540558,
				0.1848905384540558
			],
			"translation":[
				2.853041410446167,
				-0.5625074505805969,
				-4.323266983032227
			]
		},
		{
			"mesh":2,
			"name":"radio_01_low",
			"translation":[
				0,
				0,
				-1.9910589456558228
			]
		},
		{
			"mesh":3,
			"name":"radio_02_low",
			"translation":[
				0,
				0,
				-1.9910587072372437
			]
		},
		{
			"mesh":4,
			"name":"radio_03_low",
			"translation":[
				0,
				0,
				-1.9910589456558228
			]
		},
		{
			"mesh":5,
			"name":"radio_04_low",
			"translation":[
				0,
				0,
				-1.991058349609375
			]
		},
		{
			"mesh":6,
			"name":"radio_05_low",
			"translation":[
				0,
				0,
				-1.9910589456558228
			]
		},
		{
			"mesh":7,
			"name":"radio_06_low",
			"translation":[
				0,
				0,
				-1.9910589456558228
			]
		},
		{
			"mesh":8,
			"name":"radio_07_low",
			"translation":[
				0,
				0,
				-1.9910589456558228
			]
		},
		{
			"mesh":9,
			"name":"radio_08_low",
			"rotation":[
				-0.33873802423477173,
				0,
				0,
				0.9408807158470154
			],
			"scale":[
				4,
				0.8460446000099182,
				0.21933682262897491
			],
			"translation":[
				0,
				0,
				-1.9910589456558228
			]
		},
		{
			"mesh":10,
			"name":"radio_09_low",
			"rotation":[
				-0.527307391166687,
				0,
				0,
				0.849674642086029
			],
			"scale":[
				0.14230996370315552,
				0.14230996370315552,
				0.14230996370315552
			],
			"translation":[
				0,
				0,
				-1.9910589456558228
			]
		},
		{
			"children":[
				4,
				5,
				6,
				7,
				8,
				9,
				10,
				11,
				12,
				13
			],
			"name":"radio_low"
		},
		{
			"children":[
				2,
				14
			],
			"name":"aminacion",
			"rotation":[
				0.70710688829422,
				0,
				0,
				0.7071066498756409
			],
			"scale":[
				0.009999999776482582,
				0.009999999776482582,
				0.009999999776482582
			],
			"translation":[
				0,
				-0.01991058886051178,
				0
			]
		}
	],
	"materials":[
		{
			"doubleSided":true,
			"extensions":{
				"KHR_materials_specular":{
					"specularColorFactor":[
						2.0,
						2.0,
						2.0
					]
				}
			},
			"name":"blinn1",
			"pbrMetallicRoughness":{
				"baseColorFactor":[
					0.5,
					0.5,
					0.5,
					1
				],
				"metallicFactor":0.5,
				"roughnessFactor":0.7487671971321106
			}
		}
	],
	"meshes":[
		{
			"name":"Mesh.001",
			"primitives":[
				{
					"attributes":{
						"POSITION":0,
						"NORMAL":1,
						"TEXCOORD_0":2
					},
					"indices":3,
					"material":0
				}
			]
		},
		{
			"name":"Mesh",
			"primitives":[
				{
					"attributes":{
						"POSITION":4,
						"NORMAL":5,
						"TEXCOORD_0":6
					},
					"indices":7,
					"material":0
				}
			]
		},
		{
			"name":"Mesh.002",
			"primitives":[
				{
					"attributes":{
						"POSITION":8,
						"NORMAL":9,
						"TEXCOORD_0":10
					},
					"indices":3,
					"material":0
				}
			]
		},
		{
			"name":"Mesh.003",
			"primitives":[
				{
					"attributes":{
						"POSITION":11,
						"NORMAL":12,
						"TEXCOORD_0":13
					},
					"indices":7,
					"material":0
				}
			]
		},
		{
			"name":"Mesh.004",
			"primitives":[
				{
					"attributes":{
						"POSITION":14,
						"NORMAL":15,
						"TEXCOORD_0":16
					},
					"indices":17,
					"material":0
				}
			]
		},
		{
			"name":"Mesh.005",
			"primitives":[
				{
					"attributes":{
						"POSITION":18,
						"NORMAL":19,
						"TEXCOORD_0":20
					},
					"indices":21,
					"material":0
				}
			]
		},
		{
			"name":"Mesh.006",
			"primitives":[
				{
					"attributes":{
						"POSITION":22,
						"NORMAL":23,
						"TEXCOORD_0":24
					},
					"indices":25,
					"material":0
				}
			]
		},
		{
			"name":"Mesh.007",
			"primitives":[
				{
					"attributes":{
						"POSITION":26,
						"NORMAL":27,
						"TEXCOORD_0":28
					},
					"indices":29,
					"material":0
				}
			]
		},
		{
			"name":"Mesh.008",
			"primitives":[
				{
					"attributes":{
						"POSITION":30,
						"NORMAL":31,
						"TEXCOORD_0":32
					},
					"indices":33,
					"material":0
				}
			]
		},
		{
			"name":"Mesh.009",
			"primitives":[
				{
					"attributes":{
						"POSITION":34,
						"NORMAL":35,
						"TEXCOORD_0":36
					},
					"indices":37,
					"material":0
				}
			]
		},
		{
			"name":"Mesh.010",
			"primitives":[
				{
					"attributes":{
						"POSITION":38,
						"NORMAL":39,
						"TEXCOORD_0":40
					},
					"indices":41,
					"material":0
				}
			]
		}
	],
	"accessors":[
		{
			"bufferView":0,
			"componentType":5126,
			"count":51,
			"max":[
				-0.5934423208236694,
				3.117607355117798,
				-1.9714076519012451
			],
			"min":[
				-2.2916908264160156,
				2.7103376388549805,
				-3.658733606338501
			],
			"type":"VEC3"
		},
		{
			"bufferView":1,
			"componentType":5126,
			"count":51,
			"type":"VEC3"
		},
		{
			"bufferView":2,
			"componentType":5126,
			"count":51,
			"type":"VEC2"
		},
		{
			"bufferView":3,
			"componentType":5123,
			"count":144,
			"type":"SCALAR"
		},
		{
			"bufferView":4,
			"componentType":5126,
			"count":116,
			"max":[
				-0.5934420824050903,
				3.2581076622009277,
				-1.9714076519012451
			],
			"min":[
				-2.2797937393188477,
				3.0602784156799316,
				-3.658733606338501
			],
			"type":"VEC3"
		},
		{
			"bufferView":5,
			"componentType":5126,
			"count":116,
			"type":"VEC3"
		},
		{
			"bufferView":6,
			"componentType":5126,
			"count":116,
			"type":"VEC2"
		},
		{
			"bufferView":7,
			"componentType":5123,
			"count":480,
			"type":"SCALAR"
		},
		{
			"bufferView":8,
			"componentType":5126,
			"count":51,
			"max":[
				3.069091796875,
				2.4366729259490967,
				-0.10979467630386353
			],
			"min":[
				1.3708432912826538,
				2.0294032096862793,
				-1.7971205711364746
			],
			"type":"VEC3"
		},
		{
			"bufferView":9,
			"componentType":5126,
			"count":51,
			"type":"VEC3"
		},
		{
			"bufferView":10,
			"componentType":5126,
			"count":51,
			"type":"VEC2"
		},
		{
			"bufferView":11,
			"componentType":5126,
			"count":116,
			"max":[
				3.069091320037842,
				2.5771734714508057,
				-0.1097947359085083
			],
			"min":[
				1.3827394247055054,
				2.3793442249298096,
				-1.7971206903457642
			],
			"type":"VEC3"
		},
		{
			"bufferView":12,
			"componentType":5126,
			"count":116,
			"type":"VEC3"
		},
		{
			"bufferView":13,
			"componentType":5126,
			"count":116,
			"type":"VEC2"
		},
		{
			"bufferView":14,
			"componentType":5126,
			"count":4338,
			"max":[
				1.0336358547210693,
				2.1183102130889893,
				1.9910593032836914
			],
			"min":[
				-3.6750264167785645,
				1.568766474723816,
				-2.5730433464050293
			],
			"type":"VEC3"
		},
		{
			"bufferView":15,
			"componentType":5126,
			"count":4338,
			"type":"VEC3"
		},
		{
			"bufferView":16,
			"componentType":5126,
			"count":4338,
			"type":"VEC2"
		},
		{
			"bufferView":17,
			"componentType":5123,
			"count":13374,
			"type":"SCALAR"
		},
		{
			"bufferView":18,
			"componentType":5126,
			"count":295,
			"max":[
				3.6750268936157227,
				-1.5687657594680786,
				1.991058588027954
			],
			"min":[
				-3.6750266551971436,
				-2.118309497833252,
				0.5724439024925232
			],
			"type":"VEC3"
		},
		{
			"bufferView":19,
			"componentType":5126,
			"count":295,
			"type":"VEC3"
		},
		{
			"bufferView":20,
			"componentType":5126,
			"count":295,
			"type":"VEC2"
		},
		{
			"bufferView":21,
			"componentType":5123,
			"count":966,
			"type":"SCALAR"
		},
		{
			"bufferView":22,
			"componentType":5126,
			"count":52,
			"max":[
				3.6750259399414062,
				2.1010868549346924,
				1.9910590648651123
			],
			"min":[
				1.0247634649276733,
				1.5687665939331055,
				-2.5730435848236084
			],
			"type":"VEC3"
		},
		{
			"bufferView":23,
			"componentType":5126,
			"count":52,
			"type":"VEC3"
		},
		{
			"bufferView":24,
			"componentType":5126,
			"count":52,
			"type":"VEC2"
		},
		{
			"bufferView":25,
			"componentType":5123,
			"count":132,
			"type":"SCALAR"
		},
		{
			"bufferView":26,
			"componentType":5126,
			"count":72,
			"max":[
				3.6750266551971436,
				-1.568765640258789,
				0.5724447965621948
			],
			"min":[
				-3.6750266551971436,
				-2.118309259414673,
				-2.5730435848236084
			],
			"type":"VEC3"
		},
		{
			"bufferView":27,
			"componentType":5126,
			"count":72,
			"type":"VEC3"
		},
		{
			"bufferView":28,
			"componentType":5126,
			"count":72,
			"type":"VEC2"
		},
		{
			"bufferView":29,
			"componentType":5123,
			"count":192,
			"type":"SCALAR"
		},
		{
			"bufferView":30,
			"componentType":5126,
			"count":66,
			"max":[
				3.6750264167785645,
				1.568766474723816,
				1.9910590648651123
			],
			"min":[
				-3.6750264167785645,
				-1.5687661170959473,
				-2.5730435848236084
			],
			"type":"VEC3"
		},
		{
			"bufferView":31,
			"componentType":5126,
			"count":66,
			"type":"VEC3"
		},
		{
			"bufferView":32,
			"componentType":5126,
			"count":66,
			"type":"VEC2"
		},
		{
			"bufferView":33,
			"componentType":5123,
			"count":180,
			"type":"SCALAR"
		},
		{
			"bufferView":34,
			"componentType":5126,
			"count":100,
			"max":[
				0.9757565855979919,
				1.8829374313354492,
				-5.337827682495117
			],
			"min":[
				-0.9757565855979919,
				0.7950425148010254,
				-19.473270416259766
			],
			"type":"VEC3"
		},
		{
			"bufferView":35,
			"componentType":5126,
			"count":100,
			"type":"VEC3"
		},
		{
			"bufferView":36,
			"componentType":5126,
			"count":100,
			"type":"VEC2"
		},
		{
			"bufferView":37,
			"componentType":5123,
			"count":276,
			"type":"SCALAR"
		},
		{
			"bufferView":38,
			"componentType":5126,
			"count":91,
			"max":[
				-7.643521308898926,
				-13.381946563720703,
				-7.767430305480957
			],
			"min":[
				-8.643521308898926,
				-14.381945610046387,
				-12.566056251525879
			],
			"type":"VEC3"
		},
		{
			"bufferView":39,
			"componentType":5126,
			"count":91,
			"type":"VEC3"
		},
		{
			"bufferView":40,
			"componentType":5126,
			"count":91,
			"type":"VEC2"
		},
		{
			"bufferView":41,
			"componentType":5123,
			"count":384,
			"type":"SCALAR"
		}
	],
	"bufferViews":[
		{
			"buffer":0,
			"byteLength":612,
			"byteOffset":0,
			"target":34962
		},
		{
			"buffer":0,
			"byteLength":612,
			"byteOffset":612,
			"target":34962
		},
		{
			"buffer":0,
			"byteLength":408,
			"byteOffset":1224,
			"target":34962
		},
		{
			"buffer":0,
			"byteLength":288,
			"byteOffset":1632,
			"target":34963
		},
		{
			"buffer":0,
			"byteLength":1392,
			"byteOffset":1920,
			"target":34962
		},
		{
			"buffer":0,
			"byteLength":1392,
			"byteOffset":3312,
			"target":34962
		},
		{
			"buffer":0,
			"byteLength":928,
			"byteOffset":4704,
			"target":34962
		},
		{
			"buffer":0,
			"byteLength":960,
			"byteOffset":5632,
			"target":34963
		},
		{
			"buffer":0,
			"byteLength":612,
			"byteOffset":6592,
			"target":34962
		},
		{
			"buffer":0,
			"byteLength":612,
			"byteOffset":7204,
			"target":34962
		},
		{
			"buffer":0,
			"byteLength":408,
			"byteOffset":7816,
			"target":34962
		},
		{
			"buffer":0,
			"byteLength":1392,
			"byteOffset":8224,
			"target":34962
		},
		{
			"buffer":0,
			"byteLength":1392,
			"byteOffset":9616,
			"target":34962
		},
		{
			"buffer":0,
			"byteLength":928,
			"byteOffset":11008,
			"target":34962
		},
		{
			"buffer":0,
			"byteLength":52056,
			"byteOffset":11936,
			"target":34962
		},
		{
			"buffer":0,
			"byteLength":52056,
			"byteOffset":63992,
			"target":34962
		},
		{
			"buffer":0,
			"byteLength":34704,
			"byteOffset":116048,
			"target":34962
		},
		{
			"buffer":0,
			"byteLength":26748,
			"byteOffset":150752,
			"target":34963
		},
		{
			"buffer":0,
			"byteLength":3540,
			"byteOffset":177500,
			"target":34962
		},
		{
			"buffer":0,
			"byteLength":3540,
			"byteOffset":181040,
			"target":34962
		},
		{
			"buffer":0,
			"byteLength":2360,
			"byteOffset":184580,
			"target":34962
		},
		{
			"buffer":0,
			"byteLength":1932,
			"byteOffset":186940,
			"target":34963
		},
		{
			"buffer":0,
			"byteLength":624,
			"byteOffset":188872,
			"target":34962
		},
		{
			"buffer":0,
			"byteLength":624,
			"byteOffset":189496,
			"target":34962
		},
		{
			"buffer":0,
			"byteLength":416,
			"byteOffset":190120,
			"target":34962
		},
		{
			"buffer":0,
			"byteLength":264,
			"byteOffset":190536,
			"target":34963
		},
		{
			"buffer":0,
			"byteLength":864,
			"byteOffset":190800,
			"target":34962
		},
		{
			"buffer":0,
			"byteLength":864,
			"byteOffset":191664,
			"target":34962
		},
		{
			"buffer":0,
			"byteLength":576,
			"byteOffset":192528,
			"target":34962
		},
		{
			"buffer":0,
			"byteLength":384,
			"byteOffset":193104,
			"target":34963
		},
		{
			"buffer":0,
			"byteLength":792,
			"byteOffset":193488,
			"target":34962
		},
		{
			"buffer":0,
			"byteLength":792,
			"byteOffset":194280,
			"target":34962
		},
		{
			"buffer":0,
			"byteLength":528,
			"byteOffset":195072,
			"target":34962
		},
		{
			"buffer":0,
			"byteLength":360,
			"byteOffset":195600,
			"target":34963
		},
		{
			"buffer":0,
			"byteLength":1200,
			"byteOffset":195960,
			"target":34962
		},
		{
			"buffer":0,
			"byteLength":1200,
			"byteOffset":197160,
			"target":34962
		},
		{
			"buffer":0,
			"byteLength":800,
			"byteOffset":198360,
			"target":34962
		},
		{
			"buffer":0,
			"byteLength":552,
			"byteOffset":199160,
			"target":34963
		},
		{
			"buffer":0,
			"byteLength":1092,
			"byteOffset":199712,
			"target":34962
		},
		{
			"buffer":0,
			"byteLength":1092,
			"byteOffset":200804,
			"target":34962
		},
		{
			"buffer":0,
			"byteLength":728,
			"byteOffset":201896,
			"target":34962
		},
		{
			"buffer":0,
			"byteLength":768,
			"byteOffset":202624,
			"target":34963
		}
	],
	"buffers":[
		{
			"byteLength":203392,
			"uri":"radio.bin"
		}
	]
}
