{
	"asset":{
		"generator":"Khronos glTF Blender I/O v4.2.60",
		"version":"2.0"
	},
	"extensionsUsed":[
		"KHR_materials_specular"
	],
	"scene":0,
	"scenes":[
		{
			"name":"Scene",
			"nodes":[
				0
			]
		}
	],
	"nodes":[
		{
			"mesh":0,
			"name":"uploads_files_787145_Phone",
			"rotation":[
				0.7071068286895752,
				0,
				0,
				0.7071068286895752
			]
		}
	],
	"materials":[
		{
			"doubleSided":true,
			"extensions":{
				"KHR_materials_specular":{
					"specularFactor":0
				}
			},
			"name":"Material__2",
			"pbrMetallicRoughness":{
				"baseColorFactor":[
					0.800000011920929,
					0.800000011920929,
					0.800000011920929,
					1
				],
				"metallicFactor":0
			}
		}
	],
	"meshes":[
		{
			"name":"uploads_files_787145_Phone",
			"primitives":[
				{
					"attributes":{
						"POSITION":0,
						"NORMAL":1,
						"TEXCOORD_0":2
					},
					"indices":3,
					"material":0
				}
			]
		}
	],
	"accessors":[
		{
			"bufferView":0,
			"componentType":5126,
			"count":10080,
			"max":[
				86.00360107421875,
				21.9689998626709,
				-7.645500183105469
			],
			"min":[
				-86.09700012207031,
				-20.06220054626465,
				-57.78860092163086
			],
			"type":"VEC3"
		},
		{
			"bufferView":1,
			"componentType":5126,
			"count":10080,
			"type":"VEC3"
		},
		{
			"bufferView":2,
			"componentType":5126,
			"count":10080,
			"type":"VEC2"
		},
		{
			"bufferView":3,
			"componentType":5123,
			"count":60096,
			"type":"SCALAR"
		}
	],
	"bufferViews":[
		{
			"buffer":0,
			"byteLength":120960,
			"byteOffset":0,
			"target":34962
		},
		{
			"buffer":0,
			"byteLength":120960,
			"byteOffset":120960,
			"target":34962
		},
		{
			"buffer":0,
			"byteLength":80640,
			"byteOffset":241920,
			"target":34962
		},
		{
			"buffer":0,
			"byteLength":120192,
			"byteOffset":322560,
			"target":34963
		}
	],
	"buffers":[
		{
			"byteLength":442752,
			"uri":"phone.bin"
		}
	]
}
