{
	"asset":{
		"generator":"Khronos glTF Blender I/O v4.2.60",
		"version":"2.0"
	},
	"extensionsUsed":[
		"KHR_materials_specular"
	],
	"scene":0,
	"scenes":[
		{
			"name":"Scene",
			"nodes":[
				0,
				1,
				2,
				3
			]
		}
	],
	"nodes":[
		{
			"mesh":0,
			"name":"OB01_C\u00edrculo.010",
			"rotation":[
				0.7071068286895752,
				0,
				0,
				0.7071068286895752
			]
		},
		{
			"mesh":1,
			"name":"OB02_C\u00edrculo.016",
			"rotation":[
				0.7071068286895752,
				0,
				0,
				0.7071068286895752
			]
		},
		{
			"mesh":2,
			"name":"OB03_C\u00edrculo.025",
			"rotation":[
				0.7071068286895752,
				0,
				0,
				0.7071068286895752
			]
		},
		{
			"mesh":3,
			"name":"OB04_C\u00edrculo.029",
			"rotation":[
				0.7071068286895752,
				0,
				0,
				0.7071068286895752
			]
		}
	],
	"materials":[
		{
			"doubleSided":true,
			"extensions":{
				"KHR_materials_specular":{
					"specularColorFactor":[
						1.600000023841858,
						1.600000023841858,
						1.600000023841858
					]
				}
			},
			"name":"None.012",
			"pbrMetallicRoughness":{
				"baseColorFactor":[
					0.800000011920929,
					0.800000011920929,
					0.800000011920929,
					1
				],
				"metallicFactor":0,
				"roughnessFactor":0.2928932309150696
			}
		}
	],
	"meshes":[
		{
			"name":"OB01_C\u00edrculo.005",
			"primitives":[
				{
					"attributes":{
						"POSITION":0,
						"NORMAL":1,
						"TEXCOORD_0":2
					},
					"indices":3,
					"material":0
				}
			]
		},
		{
			"name":"OB02_C\u00edrculo.005",
			"primitives":[
				{
					"attributes":{
						"POSITION":4,
						"NORMAL":5,
						"TEXCOORD_0":6
					},
					"indices":7,
					"material":0
				}
			]
		},
		{
			"name":"OB03_C\u00edrculo.004",
			"primitives":[
				{
					"attributes":{
						"POSITION":8,
						"NORMAL":9,
						"TEXCOORD_0":10
					},
					"indices":11,
					"material":0
				}
			]
		},
		{
			"name":"OB04_C\u00edrculo.004",
			"primitives":[
				{
					"attributes":{
						"POSITION":12,
						"NORMAL":13,
						"TEXCOORD_0":14
					},
					"indices":15,
					"material":0
				}
			]
		}
	],
	"accessors":[
		{
			"bufferView":0,
			"componentType":5126,
			"count":136468,
			"max":[
				0.09802400320768356,
				0.09803000092506409,
				-0.04125100001692772
			],
			"min":[
				-0.09802400320768356,
				-0.09801699966192245,
				-0.08561699837446213
			],
			"type":"VEC3"
		},
		{
			"bufferView":1,
			"componentType":5126,
			"count":136468,
			"type":"VEC3"
		},
		{
			"bufferView":2,
			"componentType":5126,
			"count":136468,
			"type":"VEC2"
		},
		{
			"bufferView":3,
			"componentType":5125,
			"count":208224,
			"type":"SCALAR"
		},
		{
			"bufferView":4,
			"componentType":5126,
			"count":40904,
			"max":[
				0.04559699818491936,
				0.04559699818491936,
				-0.03215600177645683
			],
			"min":[
				-0.04559699818491936,
				-0.04559699818491936,
				-0.042819999158382416
			],
			"type":"VEC3"
		},
		{
			"bufferView":5,
			"componentType":5126,
			"count":40904,
			"type":"VEC3"
		},
		{
			"bufferView":6,
			"componentType":5126,
			"count":40904,
			"type":"VEC2"
		},
		{
			"bufferView":7,
			"componentType":5123,
			"count":61440,
			"type":"SCALAR"
		},
		{
			"bufferView":8,
			"componentType":5126,
			"count":274931,
			"max":[
				0.09998200088739395,
				0.09998799860477448,
				-0.03159699961543083
			],
			"min":[
				-0.09998200088739395,
				-0.09997600317001343,
				-0.0848580002784729
			],
			"type":"VEC3"
		},
		{
			"bufferView":9,
			"componentType":5126,
			"count":274931,
			"type":"VEC3"
		},
		{
			"bufferView":10,
			"componentType":5126,
			"count":274931,
			"type":"VEC2"
		},
		{
			"bufferView":11,
			"componentType":5125,
			"count":419286,
			"type":"SCALAR"
		},
		{
			"bufferView":12,
			"componentType":5126,
			"count":150663,
			"max":[
				0.049658000469207764,
				0.049658000469207764,
				-8.900000102585182e-05
			],
			"min":[
				-0.049658000469207764,
				-0.049658000469207764,
				-0.046581000089645386
			],
			"type":"VEC3"
		},
		{
			"bufferView":13,
			"componentType":5126,
			"count":150663,
			"type":"VEC3"
		},
		{
			"bufferView":14,
			"componentType":5126,
			"count":150663,
			"type":"VEC2"
		},
		{
			"bufferView":15,
			"componentType":5125,
			"count":243228,
			"type":"SCALAR"
		}
	],
	"bufferViews":[
		{
			"buffer":0,
			"byteLength":1637616,
			"byteOffset":0,
			"target":34962
		},
		{
			"buffer":0,
			"byteLength":1637616,
			"byteOffset":1637616,
			"target":34962
		},
		{
			"buffer":0,
			"byteLength":1091744,
			"byteOffset":3275232,
			"target":34962
		},
		{
			"buffer":0,
			"byteLength":832896,
			"byteOffset":4366976,
			"target":34963
		},
		{
			"buffer":0,
			"byteLength":490848,
			"byteOffset":5199872,
			"target":34962
		},
		{
			"buffer":0,
			"byteLength":490848,
			"byteOffset":5690720,
			"target":34962
		},
		{
			"buffer":0,
			"byteLength":327232,
			"byteOffset":6181568,
			"target":34962
		},
		{
			"buffer":0,
			"byteLength":122880,
			"byteOffset":6508800,
			"target":34963
		},
		{
			"buffer":0,
			"byteLength":3299172,
			"byteOffset":6631680,
			"target":34962
		},
		{
			"buffer":0,
			"byteLength":3299172,
			"byteOffset":9930852,
			"target":34962
		},
		{
			"buffer":0,
			"byteLength":2199448,
			"byteOffset":13230024,
			"target":34962
		},
		{
			"buffer":0,
			"byteLength":1677144,
			"byteOffset":15429472,
			"target":34963
		},
		{
			"buffer":0,
			"byteLength":1807956,
			"byteOffset":17106616,
			"target":34962
		},
		{
			"buffer":0,
			"byteLength":1807956,
			"byteOffset":18914572,
			"target":34962
		},
		{
			"buffer":0,
			"byteLength":1205304,
			"byteOffset":20722528,
			"target":34962
		},
		{
			"buffer":0,
			"byteLength":972912,
			"byteOffset":21927832,
			"target":34963
		}
	],
	"buffers":[
		{
			"byteLength":22900744,
			"uri":"woofer.bin"
		}
	]
}
