{
	"asset":{
		"generator":"Khronos glTF Blender I/O v4.2.60",
		"version":"2.0"
	},
	"scene":0,
	"scenes":[
		{
			"name":"Scene",
			"nodes":[
				0
			]
		}
	],
	"nodes":[
		{
			"mesh":0,
			"name":"uploads_files_3505571_Microphone",
			"rotation":[
				0.70710688829422,
				0,
				0,
				0.7071066498756409
			]
		}
	],
	"meshes":[
		{
			"name":"uploads_files_3505571_Microphone.001",
			"primitives":[
				{
					"attributes":{
						"POSITION":0,
						"NORMAL":1,
						"TEXCOORD_0":2
					},
					"indices":3
				}
			]
		}
	],
	"accessors":[
		{
			"bufferView":0,
			"componentType":5126,
			"count":3758,
			"max":[
				0.13604246079921722,
				0.14555825293064117,
				0.49091237783432007
			],
			"min":[
				-0.13700352609157562,
				-0.18820373713970184,
				-0.6148536205291748
			],
			"type":"VEC3"
		},
		{
			"bufferView":1,
			"componentType":5126,
			"count":3758,
			"type":"VEC3"
		},
		{
			"bufferView":2,
			"componentType":5126,
			"count":3758,
			"type":"VEC2"
		},
		{
			"bufferView":3,
			"componentType":5123,
			"count":10482,
			"type":"SCALAR"
		}
	],
	"bufferViews":[
		{
			"buffer":0,
			"byteLength":45096,
			"byteOffset":0,
			"target":34962
		},
		{
			"buffer":0,
			"byteLength":45096,
			"byteOffset":45096,
			"target":34962
		},
		{
			"buffer":0,
			"byteLength":30064,
			"byteOffset":90192,
			"target":34962
		},
		{
			"buffer":0,
			"byteLength":20964,
			"byteOffset":120256,
			"target":34963
		}
	],
	"buffers":[
		{
			"byteLength":141220,
			"uri":"microphone2.bin"
		}
	]
}
