{
	"asset":{
		"generator":"Khronos glTF Blender I/O v4.2.60",
		"version":"2.0"
	},
	"scene":0,
	"scenes":[
		{
			"name":"Scene",
			"nodes":[
				0,
				1,
				2,
				3,
				4,
				5,
				6,
				7,
				8,
				9,
				10,
				11,
				12
			]
		}
	],
	"nodes":[
		{
			"mesh":0,
			"name":"cable",
			"rotation":[
				-0.21938973665237427,
				0,
				0,
				0.9756373167037964
			],
			"scale":[
				0.3412322998046875,
				0.4874591827392578,
				0.4874591827392578
			],
			"translation":[
				-0.009949020110070705,
				-0.3269330859184265,
				1.0531325340270996
			]
		},
		{
			"mesh":1,
			"name":"cable.001",
			"rotation":[
				-0.2691555321216583,
				0,
				0,
				0.9630967378616333
			],
			"scale":[
				0.3412322998046875,
				0.4874591529369354,
				0.4874591529369354
			],
			"translation":[
				-0.009949170984327793,
				-0.32705891132354736,
				-1.0591762065887451
			]
		},
		{
			"mesh":2,
			"name":"Cube",
			"scale":[
				0.1659308671951294,
				0.06707040220499039,
				0.9500029683113098
			],
			"translation":[
				-0.008228480815887451,
				0.018783818930387497,
				0.03001730889081955
			]
		},
		{
			"mesh":3,
			"name":"Cylinder",
			"rotation":[
				-0.5064818263053894,
				0,
				0,
				0.8622506260871887
			],
			"scale":[
				0.4483632743358612,
				0.10087841749191284,
				0.47210556268692017
			],
			"translation":[
				-0.007883408106863499,
				-1.064266562461853,
				0.6427981853485107
			]
		},
		{
			"mesh":4,
			"name":"Cylinder.001",
			"rotation":[
				-0.5028846263885498,
				0,
				0,
				0.8643535375595093
			],
			"scale":[
				0.4689951539039612,
				0.13249413669109344,
				0.5026857852935791
			],
			"translation":[
				-0.00788311567157507,
				-0.9207262992858887,
				0.42514824867248535
			]
		},
		{
			"mesh":5,
			"name":"Cylinder.002",
			"rotation":[
				-0.5028846263885498,
				0,
				0,
				0.8643535375595093
			],
			"scale":[
				0.47468024492263794,
				0.04294475167989731,
				0.50877845287323
			],
			"translation":[
				-0.007883111014962196,
				-0.9845110774040222,
				0.5368450880050659
			]
		},
		{
			"mesh":6,
			"name":"Cylinder.003",
			"rotation":[
				-0.5049623847007751,
				0,
				0,
				0.8631414771080017
			],
			"scale":[
				0.2599809169769287,
				0.053340159356594086,
				0.3443867862224579
			],
			"translation":[
				-0.007882839068770409,
				-1.1656664609909058,
				0.7641814947128296
			]
		},
		{
			"mesh":7,
			"name":"Cylinder.004",
			"rotation":[
				0.5054194927215576,
				0,
				0,
				0.8628737926483154
			],
			"scale":[
				0.4483632743358612,
				0.10087842494249344,
				0.47210559248924255
			],
			"translation":[
				-0.007883408106863499,
				-1.0803167819976807,
				-0.642016589641571
			]
		},
		{
			"mesh":8,
			"name":"Cylinder.005",
			"rotation":[
				0.5090104937553406,
				0,
				0,
				0.8607604503631592
			],
			"scale":[
				0.4689951539039612,
				0.13249413669109344,
				0.5026857852935791
			],
			"translation":[
				-0.007883087731897831,
				-0.9700606465339661,
				-0.4057563841342926
			]
		},
		{
			"mesh":9,
			"name":"Cylinder.006",
			"rotation":[
				0.5090104937553406,
				0,
				0,
				0.8607604503631592
			],
			"scale":[
				0.47468024492263794,
				0.04294475167989731,
				0.50877845287323
			],
			"translation":[
				-0.007883111014962196,
				-1.031816840171814,
				-0.5185874700546265
			]
		},
		{
			"mesh":10,
			"name":"Cylinder.007",
			"rotation":[
				0.5003440976142883,
				0,
				0,
				0.8658266663551331
			],
			"scale":[
				0.2599809169769287,
				0.053340159356594086,
				0.3443867862224579
			],
			"translation":[
				-0.00897019449621439,
				-1.1564580202102661,
				-0.7681820392608643
			]
		},
		{
			"mesh":11,
			"name":"Cube.001",
			"rotation":[
				-1,
				0,
				0,
				7.549789415861596e-08
			],
			"scale":[
				0.13316015899181366,
				0.12256504595279694,
				0.06361570954322815
			],
			"translation":[
				-0.010341390036046505,
				-0.24281901121139526,
				1.0150648355484009
			]
		},
		{
			"mesh":12,
			"name":"Cube.002",
			"rotation":[
				-1,
				0,
				0,
				7.549789415861596e-08
			],
			"scale":[
				0.13316015899181366,
				0.12256504595279694,
				0.06361570954322815
			],
			"translation":[
				-0.010341390036046505,
				-0.24281901121139526,
				-1.0196173191070557
			]
		}
	],
	"meshes":[
		{
			"name":"cable.001",
			"primitives":[
				{
					"attributes":{
						"POSITION":0,
						"NORMAL":1,
						"TEXCOORD_0":2
					},
					"indices":3
				}
			]
		},
		{
			"name":"cable.002",
			"primitives":[
				{
					"attributes":{
						"POSITION":4,
						"NORMAL":5,
						"TEXCOORD_0":6
					},
					"indices":3
				}
			]
		},
		{
			"name":"Cube.001",
			"primitives":[
				{
					"attributes":{
						"POSITION":7,
						"NORMAL":8,
						"TEXCOORD_0":9
					},
					"indices":10
				}
			]
		},
		{
			"name":"Cylinder",
			"primitives":[
				{
					"attributes":{
						"POSITION":11,
						"NORMAL":12,
						"TEXCOORD_0":13
					},
					"indices":14
				}
			]
		},
		{
			"name":"Cylinder.001",
			"primitives":[
				{
					"attributes":{
						"POSITION":15,
						"NORMAL":16,
						"TEXCOORD_0":17
					},
					"indices":18
				}
			]
		},
		{
			"name":"Cylinder.002",
			"primitives":[
				{
					"attributes":{
						"POSITION":19,
						"NORMAL":20,
						"TEXCOORD_0":21
					},
					"indices":22
				}
			]
		},
		{
			"name":"Cylinder.003",
			"primitives":[
				{
					"attributes":{
						"POSITION":23,
						"NORMAL":24,
						"TEXCOORD_0":25
					},
					"indices":22
				}
			]
		},
		{
			"name":"Cylinder.004",
			"primitives":[
				{
					"attributes":{
						"POSITION":26,
						"NORMAL":27,
						"TEXCOORD_0":28
					},
					"indices":14
				}
			]
		},
		{
			"name":"Cylinder.005",
			"primitives":[
				{
					"attributes":{
						"POSITION":29,
						"NORMAL":30,
						"TEXCOORD_0":31
					},
					"indices":18
				}
			]
		},
		{
			"name":"Cylinder.006",
			"primitives":[
				{
					"attributes":{
						"POSITION":32,
						"NORMAL":33,
						"TEXCOORD_0":34
					},
					"indices":22
				}
			]
		},
		{
			"name":"Cylinder.007",
			"primitives":[
				{
					"attributes":{
						"POSITION":35,
						"NORMAL":36,
						"TEXCOORD_0":37
					},
					"indices":22
				}
			]
		},
		{
			"name":"Cube.005",
			"primitives":[
				{
					"attributes":{
						"POSITION":38,
						"NORMAL":39,
						"TEXCOORD_0":40
					},
					"indices":41
				}
			]
		},
		{
			"name":"Cube.006",
			"primitives":[
				{
					"attributes":{
						"POSITION":42,
						"NORMAL":43,
						"TEXCOORD_0":44
					},
					"indices":41
				}
			]
		}
	],
	"accessors":[
		{
			"bufferView":0,
			"componentType":5126,
			"count":697,
			"max":[
				0.16874980926513672,
				0.13340327143669128,
				0.0814334973692894
			],
			"min":[
				-0.17177966237068176,
				-0.5040712952613831,
				-0.29059553146362305
			],
			"type":"VEC3"
		},
		{
			"bufferView":1,
			"componentType":5126,
			"count":697,
			"type":"VEC3"
		},
		{
			"bufferView":2,
			"componentType":5126,
			"count":697,
			"type":"VEC2"
		},
		{
			"bufferView":3,
			"componentType":5123,
			"count":3840,
			"type":"SCALAR"
		},
		{
			"bufferView":4,
			"componentType":5126,
			"count":697,
			"max":[
				0.16874980926513672,
				0.1334032416343689,
				0.08143360167741776
			],
			"min":[
				-0.17177966237068176,
				-0.5040712356567383,
				-0.29059550166130066
			],
			"type":"VEC3"
		},
		{
			"bufferView":5,
			"componentType":5126,
			"count":697,
			"type":"VEC3"
		},
		{
			"bufferView":6,
			"componentType":5126,
			"count":697,
			"type":"VEC2"
		},
		{
			"bufferView":7,
			"componentType":5126,
			"count":378,
			"max":[
				1.3221474885940552,
				12.778404235839844,
				1.0873303413391113
			],
			"min":[
				-1.3107413053512573,
				-13.524971008300781,
				-1.1562771797180176
			],
			"type":"VEC3"
		},
		{
			"bufferView":8,
			"componentType":5126,
			"count":378,
			"type":"VEC3"
		},
		{
			"bufferView":9,
			"componentType":5126,
			"count":378,
			"type":"VEC2"
		},
		{
			"bufferView":10,
			"componentType":5123,
			"count":1824,
			"type":"SCALAR"
		},
		{
			"bufferView":11,
			"componentType":5126,
			"count":276,
			"max":[
				1,
				1.0992097854614258,
				1.0000619888305664
			],
			"min":[
				-1,
				-0.900790274143219,
				-1.0000615119934082
			],
			"type":"VEC3"
		},
		{
			"bufferView":12,
			"componentType":5126,
			"count":276,
			"type":"VEC3"
		},
		{
			"bufferView":13,
			"componentType":5126,
			"count":276,
			"type":"VEC2"
		},
		{
			"bufferView":14,
			"componentType":5123,
			"count":756,
			"type":"SCALAR"
		},
		{
			"bufferView":15,
			"componentType":5126,
			"count":280,
			"max":[
				1,
				0.975721538066864,
				1.000000238418579
			],
			"min":[
				-1,
				-1.0242784023284912,
				-0.9999996423721313
			],
			"type":"VEC3"
		},
		{
			"bufferView":16,
			"componentType":5126,
			"count":280,
			"type":"VEC3"
		},
		{
			"bufferView":17,
			"componentType":5126,
			"count":280,
			"type":"VEC2"
		},
		{
			"bufferView":18,
			"componentType":5123,
			"count":756,
			"type":"SCALAR"
		},
		{
			"bufferView":19,
			"componentType":5126,
			"count":195,
			"max":[
				0.9999999403953552,
				1.2384189367294312,
				1.000000238418579
			],
			"min":[
				-1.0000001192092896,
				-0.7615811228752136,
				-0.9999997615814209
			],
			"type":"VEC3"
		},
		{
			"bufferView":20,
			"componentType":5126,
			"count":195,
			"type":"VEC3"
		},
		{
			"bufferView":21,
			"componentType":5126,
			"count":195,
			"type":"VEC2"
		},
		{
			"bufferView":22,
			"componentType":5123,
			"count":564,
			"type":"SCALAR"
		},
		{
			"bufferView":23,
			"componentType":5126,
			"count":195,
			"max":[
				1,
				1.2384185791015625,
				1.000000238418579
			],
			"min":[
				-1.0000009536743164,
				-0.7615814208984375,
				-0.9999997615814209
			],
			"type":"VEC3"
		},
		{
			"bufferView":24,
			"componentType":5126,
			"count":195,
			"type":"VEC3"
		},
		{
			"bufferView":25,
			"componentType":5126,
			"count":195,
			"type":"VEC2"
		},
		{
			"bufferView":26,
			"componentType":5126,
			"count":276,
			"max":[
				1,
				1.0992097854614258,
				1.0000619888305664
			],
			"min":[
				-1,
				-0.900790274143219,
				-1.0000615119934082
			],
			"type":"VEC3"
		},
		{
			"bufferView":27,
			"componentType":5126,
			"count":276,
			"type":"VEC3"
		},
		{
			"bufferView":28,
			"componentType":5126,
			"count":276,
			"type":"VEC2"
		},
		{
			"bufferView":29,
			"componentType":5126,
			"count":280,
			"max":[
				1,
				0.9757213592529297,
				1.0000003576278687
			],
			"min":[
				-1,
				-1.0242786407470703,
				-0.9999997615814209
			],
			"type":"VEC3"
		},
		{
			"bufferView":30,
			"componentType":5126,
			"count":280,
			"type":"VEC3"
		},
		{
			"bufferView":31,
			"componentType":5126,
			"count":280,
			"type":"VEC2"
		},
		{
			"bufferView":32,
			"componentType":5126,
			"count":195,
			"max":[
				0.9999999403953552,
				1.2384189367294312,
				1.000000238418579
			],
			"min":[
				-1.0000001192092896,
				-0.7615811228752136,
				-0.9999997019767761
			],
			"type":"VEC3"
		},
		{
			"bufferView":33,
			"componentType":5126,
			"count":195,
			"type":"VEC3"
		},
		{
			"bufferView":34,
			"componentType":5126,
			"count":195,
			"type":"VEC2"
		},
		{
			"bufferView":35,
			"componentType":5126,
			"count":195,
			"max":[
				0.9999998807907104,
				1.2384182214736938,
				1.000000238418579
			],
			"min":[
				-1.0000001192092896,
				-0.7615817189216614,
				-0.9999997615814209
			],
			"type":"VEC3"
		},
		{
			"bufferView":36,
			"componentType":5126,
			"count":195,
			"type":"VEC3"
		},
		{
			"bufferView":37,
			"componentType":5126,
			"count":195,
			"type":"VEC2"
		},
		{
			"bufferView":38,
			"componentType":5126,
			"count":96,
			"max":[
				1,
				1,
				1
			],
			"min":[
				-1,
				-1,
				-1
			],
			"type":"VEC3"
		},
		{
			"bufferView":39,
			"componentType":5126,
			"count":96,
			"type":"VEC3"
		},
		{
			"bufferView":40,
			"componentType":5126,
			"count":96,
			"type":"VEC2"
		},
		{
			"bufferView":41,
			"componentType":5123,
			"count":132,
			"type":"SCALAR"
		},
		{
			"bufferView":42,
			"componentType":5126,
			"count":96,
			"max":[
				1,
				1,
				1
			],
			"min":[
				-1,
				-1,
				-1
			],
			"type":"VEC3"
		},
		{
			"bufferView":43,
			"componentType":5126,
			"count":96,
			"type":"VEC3"
		},
		{
			"bufferView":44,
			"componentType":5126,
			"count":96,
			"type":"VEC2"
		}
	],
	"bufferViews":[
		{
			"buffer":0,
			"byteLength":8364,
			"byteOffset":0,
			"target":34962
		},
		{
			"buffer":0,
			"byteLength":8364,
			"byteOffset":8364,
			"target":34962
		},
		{
			"buffer":0,
			"byteLength":5576,
			"byteOffset":16728,
			"target":34962
		},
		{
			"buffer":0,
			"byteLength":7680,
			"byteOffset":22304,
			"target":34963
		},
		{
			"buffer":0,
			"byteLength":8364,
			"byteOffset":29984,
			"target":34962
		},
		{
			"buffer":0,
			"byteLength":8364,
			"byteOffset":38348,
			"target":34962
		},
		{
			"buffer":0,
			"byteLength":5576,
			"byteOffset":46712,
			"target":34962
		},
		{
			"buffer":0,
			"byteLength":4536,
			"byteOffset":52288,
			"target":34962
		},
		{
			"buffer":0,
			"byteLength":4536,
			"byteOffset":56824,
			"target":34962
		},
		{
			"buffer":0,
			"byteLength":3024,
			"byteOffset":61360,
			"target":34962
		},
		{
			"buffer":0,
			"byteLength":3648,
			"byteOffset":64384,
			"target":34963
		},
		{
			"buffer":0,
			"byteLength":3312,
			"byteOffset":68032,
			"target":34962
		},
		{
			"buffer":0,
			"byteLength":3312,
			"byteOffset":71344,
			"target":34962
		},
		{
			"buffer":0,
			"byteLength":2208,
			"byteOffset":74656,
			"target":34962
		},
		{
			"buffer":0,
			"byteLength":1512,
			"byteOffset":76864,
			"target":34963
		},
		{
			"buffer":0,
			"byteLength":3360,
			"byteOffset":78376,
			"target":34962
		},
		{
			"buffer":0,
			"byteLength":3360,
			"byteOffset":81736,
			"target":34962
		},
		{
			"buffer":0,
			"byteLength":2240,
			"byteOffset":85096,
			"target":34962
		},
		{
			"buffer":0,
			"byteLength":1512,
			"byteOffset":87336,
			"target":34963
		},
		{
			"buffer":0,
			"byteLength":2340,
			"byteOffset":88848,
			"target":34962
		},
		{
			"buffer":0,
			"byteLength":2340,
			"byteOffset":91188,
			"target":34962
		},
		{
			"buffer":0,
			"byteLength":1560,
			"byteOffset":93528,
			"target":34962
		},
		{
			"buffer":0,
			"byteLength":1128,
			"byteOffset":95088,
			"target":34963
		},
		{
			"buffer":0,
			"byteLength":2340,
			"byteOffset":96216,
			"target":34962
		},
		{
			"buffer":0,
			"byteLength":2340,
			"byteOffset":98556,
			"target":34962
		},
		{
			"buffer":0,
			"byteLength":1560,
			"byteOffset":100896,
			"target":34962
		},
		{
			"buffer":0,
			"byteLength":3312,
			"byteOffset":102456,
			"target":34962
		},
		{
			"buffer":0,
			"byteLength":3312,
			"byteOffset":105768,
			"target":34962
		},
		{
			"buffer":0,
			"byteLength":2208,
			"byteOffset":109080,
			"target":34962
		},
		{
			"buffer":0,
			"byteLength":3360,
			"byteOffset":111288,
			"target":34962
		},
		{
			"buffer":0,
			"byteLength":3360,
			"byteOffset":114648,
			"target":34962
		},
		{
			"buffer":0,
			"byteLength":2240,
			"byteOffset":118008,
			"target":34962
		},
		{
			"buffer":0,
			"byteLength":2340,
			"byteOffset":120248,
			"target":34962
		},
		{
			"buffer":0,
			"byteLength":2340,
			"byteOffset":122588,
			"target":34962
		},
		{
			"buffer":0,
			"byteLength":1560,
			"byteOffset":124928,
			"target":34962
		},
		{
			"buffer":0,
			"byteLength":2340,
			"byteOffset":126488,
			"target":34962
		},
		{
			"buffer":0,
			"byteLength":2340,
			"byteOffset":128828,
			"target":34962
		},
		{
			"buffer":0,
			"byteLength":1560,
			"byteOffset":131168,
			"target":34962
		},
		{
			"buffer":0,
			"byteLength":1152,
			"byteOffset":132728,
			"target":34962
		},
		{
			"buffer":0,
			"byteLength":1152,
			"byteOffset":133880,
			"target":34962
		},
		{
			"buffer":0,
			"byteLength":768,
			"byteOffset":135032,
			"target":34962
		},
		{
			"buffer":0,
			"byteLength":264,
			"byteOffset":135800,
			"target":34963
		},
		{
			"buffer":0,
			"byteLength":1152,
			"byteOffset":136064,
			"target":34962
		},
		{
			"buffer":0,
			"byteLength":1152,
			"byteOffset":137216,
			"target":34962
		},
		{
			"buffer":0,
			"byteLength":768,
			"byteOffset":138368,
			"target":34962
		}
	],
	"buffers":[
		{
			"byteLength":139136,
			"uri":"headphones.bin"
		}
	]
}
